<svg width="1280" height="720" xmlns="http://www.w3.org/2000/svg" xmlns:xlink="http://www.w3.org/1999/xlink" overflow="hidden"><defs><clipPath id="clip0"><rect x="0" y="0" width="1280" height="720"/></clipPath><clipPath id="clip1"><rect x="131" y="360" width="79" height="79"/></clipPath><clipPath id="clip2"><rect x="131" y="360" width="79" height="79"/></clipPath><clipPath id="clip3"><rect x="131" y="360" width="79" height="79"/></clipPath><clipPath id="clip4"><rect x="1083" y="351" width="96" height="96"/></clipPath><clipPath id="clip5"><rect x="1083" y="351" width="96" height="96"/></clipPath><clipPath id="clip6"><rect x="1083" y="351" width="96" height="96"/></clipPath><clipPath id="clip7"><rect x="201" y="318" width="45" height="45"/></clipPath><clipPath id="clip8"><rect x="201" y="318" width="45" height="45"/></clipPath><clipPath id="clip9"><rect x="201" y="318" width="45" height="45"/></clipPath><clipPath id="clip10"><rect x="953" y="185" width="80" height="79"/></clipPath><clipPath id="clip11"><rect x="953" y="185" width="80" height="79"/></clipPath><clipPath id="clip12"><rect x="953" y="185" width="80" height="79"/></clipPath><clipPath id="clip13"><rect x="957" y="187" width="79" height="79"/></clipPath><clipPath id="clip14"><rect x="957" y="187" width="79" height="79"/></clipPath><clipPath id="clip15"><rect x="957" y="187" width="79" height="79"/></clipPath><clipPath id="clip16"><rect x="953" y="529" width="79" height="80"/></clipPath><clipPath id="clip17"><rect x="953" y="529" width="79" height="80"/></clipPath><clipPath id="clip18"><rect x="953" y="529" width="79" height="80"/></clipPath><clipPath id="clip19"><rect x="433" y="190" width="79" height="79"/></clipPath><clipPath id="clip20"><rect x="433" y="190" width="79" height="79"/></clipPath><clipPath id="clip21"><rect x="433" y="190" width="79" height="79"/></clipPath><clipPath id="clip22"><rect x="427" y="356" width="96" height="96"/></clipPath><clipPath id="clip23"><rect x="427" y="356" width="96" height="96"/></clipPath><clipPath id="clip24"><rect x="427" y="356" width="96" height="96"/></clipPath><clipPath id="clip25"><rect x="199" y="431" width="50" height="50"/></clipPath><clipPath id="clip26"><rect x="199" y="431" width="50" height="50"/></clipPath><clipPath id="clip27"><rect x="199" y="431" width="50" height="50"/></clipPath></defs><g clip-path="url(#clip0)"><rect x="0" y="0" width="1280" height="720" fill="#FFFFFF"/><path d="M240.002 401.012C240.002 439.672 208.661 471.012 170.002 471.012 131.341 471.012 100.001 439.672 100.001 401.012 100.001 362.352 131.341 331.012 170.002 331.012 208.661 331.012 240.002 362.352 240.002 401.012Z" fill="#A9F4EA" fill-rule="evenodd"/><text font-family="Rubik Medium,Rubik Medium_MSFontService,sans-serif" font-weight="500" font-size="21" transform="translate(1095.1 497)">Lender</text><path d="M0.000414728-0.333333 181.843-0.107087 181.843 0.559579-0.000414728 0.333333ZM180.515-3.77541 188.51 0.234541 180.505 4.22458Z" fill="#7F7F7F" transform="matrix(1 0 0 -1 544.5 400.735)"/><path d="M1202 402.001C1202 440.661 1170.44 472.001 1131.5 472.001 1092.56 472.001 1061 440.661 1061 402.001 1061 363.341 1092.56 332.001 1131.5 332.001 1170.44 332.001 1202 363.341 1202 402.001Z" fill="#18D0BA" fill-rule="evenodd"/><text font-family="Rubik Medium,Rubik Medium_MSFontService,sans-serif" font-weight="500" font-size="21" transform="translate(42.1796 486)">Borrower<tspan font-family="Rubik Light,Rubik Light_MSFontService,sans-serif" font-weight="300" font-size="16" x="512.158" y="-114">(1) Apply for a credit line </tspan><tspan font-family="Rubik Light,Rubik Light_MSFontService,sans-serif" font-weight="300" font-size="16" x="520.825" y="-95">/ propose a loan offer</tspan></text><g clip-path="url(#clip1)"><g clip-path="url(#clip2)"><g clip-path="url(#clip3)"><path d="M170.5 375.635C174.136 375.635 177.083 372.688 177.083 369.052 177.083 365.416 174.136 362.469 170.5 362.469 166.864 362.469 163.917 365.416 163.917 369.052 163.921 372.686 166.866 375.631 170.5 375.635ZM170.5 364.115C173.227 364.115 175.438 366.325 175.438 369.052 175.438 371.779 173.227 373.99 170.5 373.99 167.773 373.99 165.562 371.779 165.562 369.052 165.565 366.326 167.774 364.117 170.5 364.115Z"/><path d="M194.709 387.671C193.93 387.058 192.909 386.842 191.948 387.086L184.871 388.856 182.226 381.981 182.152 381.807C180.622 378.309 178.003 377.289 170.5 377.281L170.418 377.281C162.918 377.289 160.296 378.308 158.761 381.816L156.045 388.855 148.968 387.085C147.245 386.654 145.497 387.701 145.065 389.425 144.634 391.149 145.681 392.896 147.405 393.328L158.062 395.994C158.721 396.159 159.416 396.098 160.037 395.822 160.455 395.644 160.651 395.161 160.474 394.743 160.296 394.324 159.814 394.129 159.395 394.306 159.385 394.31 159.376 394.314 159.366 394.319 159.083 394.447 158.766 394.476 158.465 394.401L147.809 391.735C146.965 391.529 146.448 390.679 146.654 389.836 146.86 388.992 147.71 388.475 148.553 388.681 148.559 388.682 148.565 388.684 148.571 388.685L157.058 390.808 160.214 382.621 160.279 382.467C161.37 379.975 163.03 378.929 170.464 378.929 177.897 378.929 179.557 379.977 180.645 382.46L183.862 390.808 192.348 388.684C193.19 388.473 194.043 388.985 194.254 389.827 194.465 390.67 193.953 391.523 193.111 391.734L182.455 394.398C182.153 394.473 181.836 394.444 181.553 394.316 181.139 394.13 180.652 394.316 180.466 394.731 180.28 395.146 180.466 395.633 180.881 395.818 181.502 396.094 182.197 396.155 182.856 395.991L193.51 393.328C195.234 392.897 196.282 391.15 195.851 389.426 195.677 388.73 195.275 388.112 194.709 387.671Z"/><path d="M177.083 392.977 177.083 387.328C177.083 386.874 176.715 386.505 176.26 386.505 175.806 386.505 175.438 386.874 175.438 387.328L175.438 393.089 180.934 412.667 160.071 412.667 165.614 393.317 165.646 387.328C165.646 386.874 165.278 386.505 164.824 386.505 164.369 386.505 164.001 386.874 164.001 387.328L164.001 392.975 157.887 414.312 163.094 414.312 163.094 436.531 177.906 436.531 177.906 414.312 183.108 414.312ZM164.74 414.312 169.677 414.312 169.677 434.885 164.74 434.885ZM176.26 434.885 171.323 434.885 171.323 414.312 176.26 414.312Z"/></g></g></g><g clip-path="url(#clip4)"><g clip-path="url(#clip5)"><g clip-path="url(#clip6)"><path d="M1131 372.006C1128.79 372.006 1127 373.797 1127 376.006 1127 378.215 1128.79 380.006 1131 380.006 1133.21 380.006 1135 378.215 1135 376.006 1134.99 373.8 1133.21 372.013 1131 372.006ZM1131 378.006C1129.9 378.006 1129 377.111 1129 376.006 1129 374.901 1129.9 374.006 1131 374.006 1132.1 374.006 1133 374.901 1133 376.006 1133 377.111 1132.11 378.007 1131 378.008 1131 378.008 1131 378.008 1131 378.008Z"/><path d="M1162 426.021 1162 423 1158 423 1158 392 1162 392 1162 387 1167 387 1167 385 1131 363 1095 385 1095 387 1100 387 1100 392 1104 392 1104 423 1100 423 1100 426.021 1093 431.021 1093 435 1169 435 1169 431.022ZM1156 423 1154 423 1154 392 1156 392ZM1110 392 1116 392 1116 423 1110 423ZM1118 392 1120 392 1120 423 1118 423ZM1122 392 1128 392 1128 423 1122 423ZM1130 392 1132 392 1132 423 1130 423ZM1134 392 1140 392 1140 423 1134 423ZM1142 392 1144 392 1144 423 1142 423ZM1146 392 1152 392 1152 423 1146 423ZM1098.87 384.981 1131 365.347 1163.13 384.981C1163.14 384.983 1163.14 384.988 1163.14 384.994 1163.14 384.997 1163.14 384.999 1163.13 385L1098.87 385C1098.87 384.999 1098.86 384.994 1098.86 384.988 1098.86 384.985 1098.86 384.983 1098.87 384.981ZM1102 387 1160 387 1160 390 1102 390ZM1106 392 1108 392 1108 423 1106 423ZM1102 427.05 1102 425 1160 425 1160 427.05 1160.84 427.65 1161.33 428.002 1100.67 428.002 1101.16 427.65ZM1167 433 1095 433 1095 432.052 1097.87 430 1164.13 430 1167 432.052Z"/></g></g></g><path d="M0.000226312-0.333333 187.709-0.205891 187.708 0.460775-0.000226312 0.333333ZM186.378-3.87346 194.375 0.131968 186.373 4.12654Z" fill="#7F7F7F" transform="matrix(-1 0 0 1 1061.88 402.5)"/><text font-family="Rubik Medium,Rubik Medium_MSFontService,sans-serif" font-weight="500" font-size="21" transform="translate(775.459 407)">?<tspan font-size="21" x="-50.3007" y="57">Growr protocol</tspan></text><path d="M812 402.001C812 422.987 794.987 440.001 774 440.001 753.013 440.001 736 422.987 736 402.001 736 381.014 753.013 364.001 774 364.001 794.987 364.001 812 381.014 812 402.001Z" fill="#6BE8DB" fill-rule="evenodd"/><path d="M867.001 402.005C867.001 417.469 854.465 430.005 839.001 430.005 823.537 430.005 811.001 417.469 811.001 402.005 811.001 386.541 823.537 374.005 839.001 374.005 854.465 374.005 867.001 386.541 867.001 402.005Z" fill="#18D0BA" fill-rule="evenodd"/><path d="M835.006 361C835.006 372.046 825.828 381 814.506 381 803.184 381 794.006 372.046 794.006 361 794.006 349.954 803.184 341 814.506 341 825.828 341 835.006 349.954 835.006 361Z" fill="#A9F4EA" fill-rule="evenodd"/><path d="M263.001 340.507C263.001 362.322 245.316 380.007 223.501 380.007 201.686 380.007 184.001 362.322 184.001 340.507 184.001 318.692 201.686 301.007 223.501 301.007 245.316 301.007 263.001 318.692 263.001 340.507Z" fill="#A9F4EA" fill-rule="evenodd"/><g clip-path="url(#clip7)"><g clip-path="url(#clip8)"><g clip-path="url(#clip9)"><path d="M216 344.103C218.004 344.104 219.629 342.48 219.63 340.476 219.631 338.472 218.007 336.846 216.003 336.846 213.999 336.845 212.374 338.469 212.373 340.473 212.373 340.473 212.373 340.474 212.373 340.474 212.372 342.478 213.996 344.102 216 344.103 216 344.103 216 344.103 216 344.103ZM216 337.784C217.486 337.783 218.692 338.987 218.693 340.473 218.693 341.96 217.489 343.165 216.003 343.166 214.517 343.167 213.311 341.962 213.31 340.476 213.31 340.475 213.31 340.475 213.31 340.474 213.312 338.989 214.515 337.785 216 337.784Z"/><path d="M222.625 346.98C221.56 346.158 220.338 345.561 219.035 345.224 218.052 344.922 217.029 344.768 216 344.766 214.974 344.782 213.956 344.936 212.971 345.223 211.682 345.598 210.467 346.191 209.379 346.978 208.834 347.407 208.512 348.057 208.5 348.75L208.5 352.219 223.5 352.219 223.5 348.75C223.489 348.059 223.168 347.409 222.625 346.98ZM222.562 351.281 209.438 351.281 209.438 348.75C209.446 348.349 209.633 347.972 209.947 347.723 210.942 347.01 212.049 346.47 213.223 346.125 214.126 345.862 215.06 345.72 216 345.703 216.94 345.706 217.874 345.848 218.772 346.125 219.955 346.428 221.065 346.967 222.035 347.71 222.358 347.96 222.552 348.342 222.562 348.75Z"/><path d="M227.25 340.031 238.5 340.031 238.5 340.969 227.25 340.969Z"/><path d="M227.25 343.781 238.5 343.781 238.5 344.719 227.25 344.719Z"/><path d="M227.25 347.531 238.5 347.531 238.5 348.469 227.25 348.469Z"/><path d="M227.25 351.281 238.5 351.281 238.5 352.219 227.25 352.219Z"/><path d="M240.375 330.188 226.781 330.188 226.781 326.438C226.781 325.402 225.942 324.562 224.906 324.562L222.094 324.562C221.058 324.562 220.219 325.402 220.219 326.438L220.219 330.188 206.625 330.188C205.589 330.188 204.75 331.027 204.75 332.062L204.75 354.562C204.75 355.598 205.589 356.438 206.625 356.438L240.375 356.438C241.411 356.438 242.25 355.598 242.25 354.562L242.25 332.062C242.25 331.027 241.411 330.188 240.375 330.188ZM221.156 326.438C221.156 325.92 221.576 325.5 222.094 325.5L224.906 325.5C225.424 325.5 225.844 325.92 225.844 326.438L225.844 331.594C225.844 332.112 225.424 332.531 224.906 332.531L222.094 332.531C221.576 332.531 221.156 332.112 221.156 331.594ZM241.312 354.562C241.312 355.08 240.893 355.5 240.375 355.5L206.625 355.5C206.107 355.5 205.688 355.08 205.688 354.562L205.688 332.062C205.688 331.545 206.107 331.125 206.625 331.125L220.219 331.125 220.219 331.594C220.219 332.629 221.058 333.469 222.094 333.469L224.906 333.469C225.942 333.469 226.781 332.629 226.781 331.594L226.781 331.125 240.375 331.125C240.893 331.125 241.312 331.545 241.312 332.062Z"/></g></g></g><text font-family="Rubik Medium,Rubik Medium_MSFontService,sans-serif" font-weight="500" font-size="16" transform="translate(205.873 292)">SSFI<tspan font-size="21" x="716.14" y="-146">Risk Assessor</tspan></text><path d="M0.494437 6.66464 0.526657 115.464 0.193324 115.131 107.967 115.131 107.967 115.797-0.139911 115.797-0.17223 6.66483ZM-3.80551 8.09433 0 0 4.19216 7.901Z" fill="#7F7F7F" transform="matrix(1 0 0 -1 815.5 340.964)"/><path d="M1063 225.001C1063 263.661 1031.66 295.001 993 295.001 954.34 295.001 923 263.661 923 225.001 923 186.341 954.34 155.001 993 155.001 1031.66 155.001 1063 186.341 1063 225.001Z" fill="#18D0BA" fill-rule="evenodd"/><g clip-path="url(#clip10)"><g clip-path="url(#clip11)"><g clip-path="url(#clip12)"><path d="M38.5125 23.3947C40.3304 23.3947 41.8042 21.9209 41.8042 20.103 41.8042 18.2851 40.3304 16.8114 38.5125 16.8114 36.6946 16.8114 35.2208 18.2851 35.2208 20.103 35.2316 21.9165 36.699 23.3839 38.5125 23.3947ZM38.5125 18.4572C39.4215 18.4572 40.1583 19.194 40.1583 20.103 40.1583 21.012 39.4215 21.7489 38.5125 21.7489 37.6035 21.7489 36.8667 21.012 36.8667 20.103 36.8782 19.1989 37.6084 18.4687 38.5125 18.4572Z" fill="#18D0BA" transform="matrix(1.01266 0 0 1 953 185)"/><path d="M28.6375 39.3041C30.4554 39.3041 31.9292 37.8304 31.9292 36.0125 31.9292 34.1946 30.4554 32.7208 28.6375 32.7208 26.8196 32.7208 25.3458 34.1946 25.3458 36.0125 25.3458 37.8304 26.8196 39.3041 28.6375 39.3041ZM28.6375 34.3666C29.5465 34.3666 30.2833 35.1035 30.2833 36.0125 30.2833 36.9215 29.5465 37.6583 28.6375 37.6583 27.7285 37.6583 26.9917 36.9215 26.9917 36.0125 26.9917 35.1035 27.7285 34.3666 28.6375 34.3666Z" fill="#18D0BA" transform="matrix(1.01266 0 0 1 953 185)"/><path d="M21.9801 39.6177 21.2749 41.6552 22.8384 43.2229 24.8759 42.5958C25.4159 42.9111 25.9977 43.1486 26.6041 43.3011L27.543 45.2604 29.7369 45.2604 30.5993 43.3792C31.2057 43.2267 31.7875 42.9893 32.3275 42.674L34.3642 43.3792 35.9277 41.8157 35.3031 39.774C35.6179 39.2353 35.8552 38.6549 36.0084 38.05L37.9669 37.1094 38.0451 34.7584 36.0841 33.8219C35.9312 33.2156 35.6938 32.6338 35.3788 32.0938L36.0841 30.0562 34.5205 28.4886 32.483 29.1938C31.9441 28.8792 31.3638 28.6418 30.759 28.4886L29.8192 26.5292 27.543 26.5292 26.6033 28.4886C25.997 28.6414 25.4152 28.8789 24.8751 29.1938L22.8376 28.4886 21.274 30.0562 21.9801 32.0938C21.6652 32.6324 21.4278 33.2128 21.2749 33.8178L19.3163 34.7584 19.3163 36.9531 21.2749 37.8937C21.4278 38.4986 21.6652 39.079 21.9801 39.6177ZM20.9622 35.7969 21.9875 35.3031 22.6845 34.969 22.8713 34.2185C22.9875 33.7595 23.1687 33.3194 23.4095 32.9117L23.7798 32.2633 23.5329 31.5572 23.1643 30.4932 23.2746 30.3829 24.3386 30.7508 25.0446 30.9976 25.6931 30.6273C26.1009 30.3867 26.541 30.2055 26.9999 30.0891L27.7496 29.9015 28.0845 29.2045 28.5783 28.1791 28.779 28.1791 29.2728 29.2045 29.6077 29.9015 30.3574 30.0891C30.8163 30.2055 31.2564 30.3867 31.6642 30.6273L32.3126 30.9976 33.0187 30.7508 34.0827 30.3829 34.1922 30.4932 33.8219 31.5556 33.575 32.2616 33.9453 32.9101C34.1856 33.318 34.3668 33.758 34.4835 34.2169L34.6703 34.9674 35.3673 35.3015 36.3548 35.7771 36.3458 36.0577 35.2858 36.5663 34.5888 36.9012 34.4012 37.6509C34.2855 38.1099 34.1045 38.55 33.8638 38.9577L33.51 39.5765 33.7198 40.2579 34.0556 41.3491 33.9173 41.4873 32.8541 41.1187 32.1481 40.8718 31.4988 41.2429C31.0912 41.4831 30.6514 41.664 30.1928 41.7803L29.425 41.972 29.0959 42.6913 28.6811 43.6146 28.5791 43.6146 28.0853 42.5892 27.7504 41.8922 27.0007 41.7046C26.5417 41.5884 26.1016 41.4072 25.6939 41.1664L25.0751 40.8126 24.3937 41.0224 23.3034 41.3581 23.1651 41.2199 23.5354 40.1583 23.7823 39.4523 23.412 38.8038C23.1714 38.3961 22.9902 37.956 22.8738 37.497L22.687 36.7465 21.99 36.4124 20.9646 35.9187Z" fill="#18D0BA" transform="matrix(1.01266 0 0 1 953 185)"/><path d="M31.7745 23.7864 31.0692 25.8239 32.6328 27.3916 34.6703 26.6864C35.2091 27.001 35.7895 27.2384 36.3943 27.3916L37.3341 29.351 39.528 29.351 40.4686 27.4698C41.0748 27.3169 41.6566 27.0795 42.1967 26.7645L44.2334 27.4698 45.8011 25.9021 45.0958 23.8646C45.4352 23.3288 45.6989 22.7486 45.8792 22.1406L47.8378 21.2 47.8378 18.8489 45.8792 17.9083C45.7261 17.3034 45.4888 16.7231 45.174 16.1843L45.8792 14.1459 44.3157 12.5824 42.2782 13.2876C41.7395 12.9727 41.1591 12.7353 40.5542 12.5824L39.6103 10.6979 37.4164 10.6979 36.4758 12.6573C35.8694 12.8098 35.2876 13.0473 34.7477 13.3625L32.7109 12.6573 31.1474 14.2249 31.7745 16.2625C31.4599 16.8013 31.2224 17.3816 31.0692 17.9865L29.1107 18.9271 29.1107 21.1218 31.0692 22.0624C31.2226 22.6672 31.46 23.2475 31.7745 23.7864ZM30.7565 19.9623 31.7819 19.4686 32.4789 19.1345 32.6657 18.384C32.7822 17.925 32.9634 17.4851 33.2039 17.0772L33.5569 16.4583 33.3479 15.777 33.0121 14.6858 33.1504 14.5483 34.2136 14.9162 34.9196 15.1631 35.5689 14.7928C35.9764 14.552 36.4161 14.3708 36.8749 14.2546L37.6254 14.0669 37.9595 13.3699 38.4533 12.3446 38.5948 12.3446 39.0803 13.3156 39.4177 13.9896 40.1518 14.1731C40.6106 14.2893 41.0506 14.4703 41.4585 14.7105L42.107 15.0816 42.8131 14.8347 43.8771 14.4661 43.9865 14.5763 43.6146 15.6461 43.3677 16.3514 43.738 17.0006C43.9786 17.4085 44.1599 17.8485 44.2762 18.3074L44.463 19.0571 45.16 19.392 46.1854 19.8858 46.1854 20.1615 45.16 20.6552 44.463 20.9893 44.2762 21.7398C44.1282 22.2002 43.921 22.6395 43.6598 23.0466L43.2895 23.6951 43.5364 24.4011 43.9043 25.4652 43.794 25.5754 42.7308 25.2076 42.0247 24.9607 41.3754 25.331C40.968 25.5718 40.5282 25.753 40.0695 25.8692L39.3346 26.0527 38.9964 26.73 38.5109 27.701 38.3701 27.701 37.8764 26.6748 37.5415 25.9778 36.7918 25.7902C36.3328 25.6743 35.8927 25.4934 35.485 25.2528L34.8365 24.8825 34.1305 25.1294 33.0664 25.4972 32.957 25.387 33.3248 24.3229 33.5717 23.6169 33.2014 22.9684C32.9611 22.5605 32.7799 22.1205 32.6632 21.6616L32.4764 20.9111 31.7794 20.577 30.754 20.0833Z" fill="#18D0BA" transform="matrix(1.01266 0 0 1 953 185)"/><path d="M21.2313 50.2119 21.2313 71.0375 47.2354 71.0375 47.2354 61.1625 51.2677 61.1625C53.8628 61.1578 56.3496 60.1216 58.1802 58.2822 59.9854 56.4022 60.9888 53.8939 60.9781 51.2875L60.9781 46.35 64.599 46.35C66.7385 46.1031 68.6313 43.6343 66.6562 40.5895L60.9781 30.7145 60.9781 30.3031C61.5126 16.6458 50.8744 5.14119 37.2171 4.60674 23.5599 4.07229 12.0553 14.7105 11.5208 28.3677 11.4956 29.0126 11.4956 29.6582 11.5208 30.3031 11.4924 38.0867 15.08 45.4423 21.2313 50.2119ZM24.4538 9.48494C35.4233 2.96917 49.5979 6.57964 56.1137 17.5491 58.3879 21.3779 59.5071 25.7823 59.3364 30.2323L59.3364 31.1425 59.5553 31.5235 65.2334 41.3985 65.2556 41.4363 65.2795 41.4734C65.8138 42.1183 65.9717 42.9958 65.6959 43.7866 65.4625 44.2639 65.0146 44.6005 64.4912 44.6918L59.3323 44.6918 59.3323 51.2751C59.3411 53.4456 58.5112 55.5356 57.0158 57.1088 55.4982 58.6466 53.4282 59.5128 51.2677 59.5142L45.5896 59.5142 45.5896 69.3892 22.8771 69.3892 22.8771 49.4046 22.2385 48.9109C16.4765 44.4586 13.1217 37.5731 13.1667 30.2916L13.1667 30.2619 13.1667 30.2323C12.8326 21.768 17.1665 13.8022 24.4546 9.48494Z" fill="#18D0BA" transform="matrix(1.01266 0 0 1 953 185)"/></g></g></g><g clip-path="url(#clip13)"><g clip-path="url(#clip14)"><g clip-path="url(#clip15)"><path d="M995.513 210.395C997.33 210.395 998.804 208.921 998.804 207.103 998.804 205.285 997.33 203.811 995.513 203.811 993.695 203.811 992.221 205.285 992.221 207.103 992.232 208.916 993.699 210.384 995.513 210.395ZM995.513 205.457C996.422 205.457 997.158 206.194 997.158 207.103 997.158 208.012 996.422 208.749 995.513 208.749 994.604 208.749 993.867 208.012 993.867 207.103 993.878 206.199 994.608 205.469 995.513 205.457Z"/><path d="M985.638 226.304C987.455 226.304 988.929 224.83 988.929 223.012 988.929 221.195 987.455 219.721 985.638 219.721 983.82 219.721 982.346 221.195 982.346 223.012 982.346 224.83 983.82 226.304 985.638 226.304ZM985.638 221.367C986.547 221.367 987.283 222.103 987.283 223.012 987.283 223.921 986.547 224.658 985.638 224.658 984.729 224.658 983.992 223.921 983.992 223.012 983.992 222.103 984.729 221.367 985.638 221.367Z"/><path d="M978.98 226.618 978.275 228.655 979.838 230.223 981.876 229.596C982.416 229.911 982.998 230.149 983.604 230.301L984.543 232.26 986.737 232.26 987.599 230.379C988.206 230.227 988.787 229.989 989.327 229.674L991.364 230.379 992.928 228.816 992.303 226.774C992.618 226.235 992.855 225.655 993.008 225.05L994.967 224.109 995.045 221.758 993.084 220.822C992.931 220.216 992.694 219.634 992.379 219.094L993.084 217.056 991.521 215.489 989.483 216.194C988.944 215.879 988.364 215.642 987.759 215.489L986.819 213.529 984.543 213.529 983.603 215.489C982.997 215.641 982.415 215.879 981.875 216.194L979.838 215.489 978.274 217.056 978.98 219.094C978.665 219.632 978.428 220.213 978.275 220.818L976.316 221.758 976.316 223.953 978.275 224.894C978.428 225.499 978.665 226.079 978.98 226.618ZM977.962 222.797 978.987 222.303 979.685 221.969 979.871 221.219C979.988 220.759 980.169 220.319 980.409 219.912L980.78 219.263 980.533 218.557 980.164 217.493 980.275 217.383 981.339 217.751 982.045 217.998 982.693 217.627C983.101 217.387 983.541 217.205 984 217.089L984.75 216.902 985.084 216.204 985.578 215.179 985.779 215.179 986.273 216.204 986.608 216.902 987.357 217.089C987.816 217.205 988.256 217.387 988.664 217.627L989.313 217.998 990.019 217.751 991.083 217.383 991.192 217.493 990.822 218.556 990.575 219.262 990.945 219.91C991.186 220.318 991.367 220.758 991.484 221.217L991.67 221.967 992.367 222.301 993.355 222.777 993.346 223.058 992.286 223.566 991.589 223.901 991.401 224.651C991.286 225.11 991.105 225.55 990.864 225.958L990.51 226.577 990.72 227.258 991.056 228.349 990.917 228.487 989.854 228.119 989.148 227.872 988.499 228.243C988.091 228.483 987.651 228.664 987.193 228.78L986.425 228.972 986.096 229.691 985.681 230.615 985.579 230.615 985.085 229.589 984.75 228.892 984.001 228.705C983.542 228.588 983.102 228.407 982.694 228.166L982.075 227.813 981.394 228.022 980.303 228.358 980.165 228.22 980.535 227.158 980.782 226.452 980.412 225.804C980.171 225.396 979.99 224.956 979.874 224.497L979.687 223.747 978.99 223.412 977.965 222.919Z"/><path d="M988.774 210.786 988.069 212.824 989.633 214.392 991.67 213.686C992.209 214.001 992.789 214.238 993.394 214.392L994.334 216.351 996.528 216.351 997.469 214.47C998.075 214.317 998.657 214.079 999.197 213.765L1001.23 214.47 1002.8 212.902 1002.1 210.865C1002.44 210.329 1002.7 209.749 1002.88 209.141L1004.84 208.2 1004.84 205.849 1002.88 204.908C1002.73 204.303 1002.49 203.723 1002.17 203.184L1002.88 201.146 1001.32 199.582 999.278 200.288C998.74 199.973 998.159 199.735 997.554 199.582L996.61 197.698 994.416 197.698 993.476 199.657C992.869 199.81 992.288 200.047 991.748 200.363L989.711 199.657 988.147 201.225 988.774 203.262C988.46 203.801 988.222 204.382 988.069 204.986L986.111 205.927 986.111 208.122 988.069 209.062C988.223 209.667 988.46 210.247 988.774 210.786ZM987.757 206.962 988.782 206.469 989.479 206.134 989.666 205.384C989.782 204.925 989.963 204.485 990.204 204.077L990.557 203.458 990.348 202.777 990.012 201.686 990.15 201.548 991.214 201.916 991.92 202.163 992.569 201.793C992.976 201.552 993.416 201.371 993.875 201.255L994.625 201.067 994.959 200.37 995.453 199.345 995.595 199.345 996.08 200.316 996.418 200.99 997.152 201.173C997.611 201.289 998.051 201.47 998.459 201.71L999.107 202.082 999.813 201.835 1000.88 201.466 1000.99 201.576 1000.61 202.646 1000.37 203.351 1000.74 204.001C1000.98 204.408 1001.16 204.848 1001.28 205.307L1001.46 206.057 1002.16 206.392 1003.19 206.886 1003.19 207.161 1002.16 207.655 1001.46 207.989 1001.28 208.74C1001.13 209.2 1000.92 209.64 1000.66 210.047L1000.29 210.695 1000.54 211.401 1000.9 212.465 1000.79 212.575 999.731 212.208 999.025 211.961 998.375 212.331C997.968 212.572 997.528 212.753 997.069 212.869L996.335 213.053 995.996 213.73 995.511 214.701 995.37 214.701 994.876 213.675 994.541 212.978 993.792 212.79C993.333 212.674 992.893 212.493 992.485 212.253L991.837 211.883 991.13 212.129 990.066 212.497 989.957 212.387 990.325 211.323 990.572 210.617 990.201 209.968C989.961 209.561 989.78 209.12 989.663 208.662L989.476 207.911 988.779 207.577 987.754 207.083Z"/><path d="M978.231 237.212 978.231 258.037 1004.24 258.037 1004.24 248.162 1008.27 248.162C1010.86 248.158 1013.35 247.122 1015.18 245.282 1016.99 243.402 1017.99 240.894 1017.98 238.287L1017.98 233.35 1021.6 233.35C1023.74 233.103 1025.63 230.634 1023.66 227.59L1017.98 217.715 1017.98 217.303C1018.51 203.646 1007.87 192.141 994.217 191.607 980.56 191.072 969.055 201.71 968.521 215.368 968.496 216.013 968.496 216.658 968.521 217.303 968.492 225.087 972.08 232.442 978.231 237.212ZM981.454 196.485C992.423 189.969 1006.6 193.58 1013.11 204.549 1015.39 208.378 1016.51 212.782 1016.34 217.232L1016.34 218.142 1016.56 218.523 1022.23 228.398 1022.26 228.436 1022.28 228.473C1022.81 229.118 1022.97 229.996 1022.7 230.787 1022.46 231.264 1022.01 231.601 1021.49 231.692L1016.33 231.692 1016.33 238.275C1016.34 240.446 1015.51 242.536 1014.02 244.109 1012.5 245.647 1010.43 246.513 1008.27 246.514L1002.59 246.514 1002.59 256.389 979.877 256.389 979.877 236.405 979.239 235.911C973.477 231.459 970.122 224.573 970.167 217.292L970.167 217.262 970.167 217.232C969.833 208.768 974.167 200.802 981.455 196.485Z"/></g></g></g><text font-family="Rubik Light,Rubik Light_MSFontService,sans-serif" font-weight="300" font-size="16" transform="translate(822.162 196)">(2) Provide a <tspan font-size="16" x="1.66669" y="19">credit rating</tspan></text><path d="M1063 575.001C1063 613.661 1031.66 645.001 993 645.001 954.34 645.001 923 613.661 923 575.001 923 536.341 954.34 505.001 993 505.001 1031.66 505.001 1063 536.341 1063 575.001Z" fill="#18D0BA" fill-rule="evenodd"/><g clip-path="url(#clip16)"><g clip-path="url(#clip17)"><g clip-path="url(#clip18)"><path d="M66.2629 23.8457 67.5615 30.4479 69.2386 30.4479 67.5615 21.9102 24.6875 30.4331C24.6422 30.4422 24.6431 30.4487 24.6875 30.4487L33.0492 30.4487Z" transform="matrix(1 0 0 1.01266 953 529)"/><path d="M56.4973 14.9006 58.9768 21.0996 60.6226 20.7704 57.4132 12.747 14.1608 30.4331C14.1394 30.4422 14.141 30.4487 14.1608 30.4487L18.4679 30.4487Z" transform="matrix(1 0 0 1.01266 953 529)"/><path d="M75.7182 32.9167 3.29167 32.9167 3.29167 65.8333 75.7182 65.8333ZM74.0724 64.1875 4.9375 64.1875 4.9375 34.5625 74.0724 34.5625Z" transform="matrix(1 0 0 1.01266 953 529)"/><path d="M39.5049 56.7812C42.7777 56.7812 45.4299 53.4657 45.4299 49.375 45.4299 45.2843 42.7769 41.9688 39.5049 41.9688 36.233 41.9688 33.5799 45.2843 33.5799 49.375 33.5799 53.4657 36.2322 56.7812 39.5049 56.7812ZM39.5049 43.6146C41.8651 43.6146 43.7841 46.1985 43.7841 49.375 43.7841 52.5515 41.8642 55.1354 39.5049 55.1354 37.1456 55.1354 35.2258 52.5515 35.2258 49.375 35.2258 46.1985 37.1456 43.6146 39.5049 43.6146Z" transform="matrix(1 0 0 1.01266 953 529)"/><path d="M18.0367 52.5506C19.795 53.0385 21.6159 52.0085 22.1037 50.2502 22.2641 49.672 22.2641 49.0611 22.1035 48.483 21.801 47.3733 20.9343 46.5064 19.8249 46.2035 18.0669 45.7144 16.2453 46.7431 15.7562 48.5011 15.5949 49.0806 15.595 49.6932 15.7564 50.2728 16.0595 51.3823 16.9268 52.2488 18.0367 52.5506ZM18.9271 47.7292C19.8361 47.7292 20.5729 48.466 20.5729 49.375 20.5729 50.284 19.8361 51.0208 18.9271 51.0208 18.0181 51.0208 17.2812 50.284 17.2812 49.375 17.2812 48.466 18.0181 47.7292 18.9271 47.7292Z" transform="matrix(1 0 0 1.01266 953 529)"/><path d="M60.7526 52.6017C62.3138 52.2378 63.4069 50.8303 63.3728 49.2277L63.3728 49.2277C63.3942 48.1408 62.828 47.1267 61.8916 46.5746 60.3309 45.5979 58.2739 46.0712 57.2971 47.6319 56.9704 48.154 56.7947 48.7566 56.7895 49.3725 56.7897 51.1936 58.2662 52.6698 60.0873 52.6695 60.3108 52.6695 60.5337 52.6468 60.7526 52.6017ZM60.0812 47.7292C60.9901 47.7292 61.727 48.466 61.727 49.375 61.727 50.284 60.9901 51.0208 60.0812 51.0208 59.1722 51.0208 58.4353 50.284 58.4353 49.375 58.4353 48.466 59.1722 47.7292 60.0812 47.7292Z" transform="matrix(1 0 0 1.01266 953 529)"/><path d="M68.3111 60.8958 70.7799 58.4271 70.7799 40.3229 68.3111 37.8542 11.5208 37.8542 8.22917 41.1458 8.22917 57.6042 11.5208 60.8958ZM9.875 41.8289 12.2039 39.5 67.6298 39.5 69.1341 41.0043 69.1341 57.7474 67.6298 59.25 12.2039 59.25 9.875 56.9244Z" transform="matrix(1 0 0 1.01266 953 529)"/></g></g></g><path d="M923.358 575.993 838.339 575.993 838.477 437.131 839.144 437.131 839.006 575.66 838.672 575.326 923.358 575.326ZM834.694 438.043 839.5 430.5 842.651 438.871Z" fill="#7F7F7F"/><text font-family="Rubik Light,Rubik Light_MSFontService,sans-serif" font-weight="300" font-size="16" transform="translate(840.654 595)">(4) Provide<tspan font-size="16" x="11.0867" y="19">liquidity</tspan><tspan font-family="Rubik Medium,Rubik Medium_MSFontService,sans-serif" font-weight="500" font-size="21" x="82.3427" y="75">DeFi</tspan><tspan font-family="Rubik Medium,Rubik Medium_MSFontService,sans-serif" font-weight="500" font-size="21" x="133.009" y="75">Protocol</tspan></text><path d="M544 227.001C544 265.661 512.436 297.001 473.5 297.001 434.564 297.001 403 265.661 403 227.001 403 188.341 434.564 157.001 473.5 157.001 512.436 157.001 544 188.341 544 227.001Z" fill="#6BE8DB" fill-rule="evenodd"/><text font-family="Rubik Medium,Rubik Medium_MSFontService,sans-serif" font-weight="500" font-size="21" transform="translate(380.308 146)">Credential Issuers</text><g clip-path="url(#clip19)"><g clip-path="url(#clip20)"><g clip-path="url(#clip21)"><path d="M503.083 230.358C505.059 230.358 506.24 228.285 506.24 224.813 506.24 219.416 503.275 211.431 496.911 211.431L484.236 211.431C483.693 211.065 483.065 210.844 482.413 210.788 481.96 209.97 481.231 209.339 480.356 209.008 479.568 208.7 478.703 208.647 477.883 208.857 477.207 208.368 476.395 208.105 475.561 208.104 474.627 208.103 473.72 208.421 472.99 209.006 471.225 208.507 469.344 209.257 468.406 210.834 467.87 210.93 467.359 211.133 466.904 211.431L447.536 211.431C442.922 211.431 439.307 217.214 439.307 224.597 439.307 231.95 442.893 237.712 447.48 237.76L466.875 237.764 466.875 250.931 475.104 244.553 483.333 250.931 483.333 237.764 502.672 237.764C503.126 237.764 503.494 237.396 503.494 236.941 503.494 236.487 503.126 236.118 502.672 236.118 499.834 236.224 497.444 234.018 497.323 231.181L497.323 230.358ZM469.508 212.393 469.705 211.913C469.943 211.364 470.384 210.927 470.936 210.696 471.553 210.428 472.253 210.43 472.867 210.704L473.396 210.927 473.788 210.507C474.704 209.551 476.216 209.504 477.19 210.4L477.572 210.728 478.039 210.537C478.594 210.319 479.212 210.322 479.765 210.545 480.388 210.773 480.88 211.262 481.11 211.885L481.319 212.451 481.922 212.422C482.594 212.374 483.252 212.628 483.718 213.115 484.138 213.539 484.386 214.104 484.412 214.7L484.441 215.218 484.92 215.415C485.469 215.653 485.905 216.094 486.137 216.646 486.405 217.262 486.402 217.963 486.129 218.577L485.907 219.105 486.326 219.497C486.816 219.956 487.09 220.6 487.082 221.271 487.082 221.866 486.857 222.44 486.452 222.876L486.096 223.262 486.296 223.747C486.513 224.303 486.51 224.92 486.287 225.474 486.06 226.097 485.571 226.589 484.949 226.818L484.382 227.027 484.411 227.63C484.454 228.301 484.201 228.959 483.717 229.427 483.293 229.845 482.729 230.092 482.133 230.12L481.615 230.149 481.418 230.628C481.18 231.178 480.739 231.614 480.187 231.845 479.571 232.114 478.87 232.111 478.256 231.838L477.727 231.615 477.335 232.035C476.419 232.99 474.907 233.038 473.933 232.141L473.551 231.813 473.084 232.005C472.529 232.222 471.911 232.219 471.358 231.996 470.735 231.769 470.243 231.279 470.013 230.657L469.805 230.091 469.202 230.119C468.53 230.164 467.873 229.911 467.405 229.426 466.985 229.003 466.738 228.438 466.712 227.841L466.683 227.323 466.203 227.126C465.654 226.888 465.218 226.447 464.986 225.895 464.718 225.279 464.721 224.579 464.994 223.965L465.217 223.436 464.797 223.044C464.308 222.585 464.033 221.942 464.04 221.271 464.051 220.667 464.282 220.088 464.691 219.643L465.019 219.26 464.827 218.794C464.61 218.238 464.613 217.621 464.835 217.067 465.063 216.444 465.552 215.953 466.174 215.723L466.741 215.514 466.712 214.912C466.668 214.24 466.922 213.583 467.405 213.114 467.83 212.696 468.394 212.449 468.99 212.421ZM465.442 213.077C465.241 213.499 465.118 213.953 465.079 214.419 464.261 214.873 463.63 215.602 463.299 216.476 462.992 217.265 462.939 218.129 463.148 218.949 462.659 219.625 462.396 220.437 462.395 221.271 462.394 222.206 462.712 223.113 463.297 223.842 463.034 224.744 463.101 225.71 463.484 226.568 463.821 227.345 464.395 227.996 465.125 228.426 465.142 228.524 465.174 228.616 465.197 228.712L453.82 228.712C454.834 227.267 455.371 225.54 455.354 223.775 455.354 218.968 453.942 215.132 451.658 213.077ZM447.536 236.118C443.968 236.118 440.953 230.842 440.953 224.597 440.953 218.353 443.968 213.077 447.536 213.077 451.17 213.077 453.708 217.476 453.708 223.773 453.707 223.975 453.656 228.712 450.417 228.712 448.632 228.712 447.125 226.263 447.125 223.363 447.124 222.765 447.188 222.168 447.317 221.583 447.416 221.139 447.137 220.7 446.693 220.601 446.249 220.502 445.809 220.781 445.71 221.225 445.555 221.927 445.478 222.644 445.479 223.363 445.479 227.286 447.648 230.358 450.417 230.358L466.042 230.358C466.109 230.436 466.169 230.518 466.242 230.591 466.435 230.782 466.647 230.954 466.875 231.103L466.875 236.118ZM476.112 243.253 475.104 242.471 474.096 243.253 468.521 247.573 468.521 231.721C468.585 231.729 468.645 231.748 468.71 231.754 469.163 232.572 469.892 233.202 470.767 233.533 471.555 233.841 472.42 233.894 473.24 233.685 473.916 234.173 474.728 234.437 475.561 234.438 476.496 234.439 477.403 234.12 478.132 233.535 479.035 233.798 480.001 233.732 480.858 233.349 481.153 233.214 481.431 233.046 481.687 232.847L481.687 247.573ZM498.061 236.118 483.333 236.118 483.333 231.549C483.916 231.353 484.446 231.025 484.882 230.591 484.955 230.517 485.012 230.435 485.079 230.358L495.677 230.358 495.677 231.18C495.691 233.1 496.566 234.913 498.06 236.118ZM485.942 228.712C485.991 228.518 486.026 228.321 486.045 228.123 486.863 227.669 487.493 226.94 487.824 226.065 488.131 225.281 488.185 224.42 487.979 223.604 488.467 222.924 488.729 222.108 488.728 221.271 488.729 220.336 488.411 219.429 487.826 218.7 488.325 216.934 487.575 215.054 485.998 214.116 485.933 213.756 485.819 213.407 485.661 213.077L496.911 213.077C501.924 213.077 504.594 219.893 504.594 224.813 504.594 227.109 503.973 228.712 503.083 228.712Z"/><path d="M475.381 229.314C479.823 229.314 483.424 225.713 483.424 221.271 483.424 216.828 479.823 213.227 475.381 213.227 470.938 213.227 467.337 216.828 467.337 221.271 467.342 225.711 470.94 229.309 475.381 229.314ZM475.381 214.873C478.914 214.873 481.778 217.737 481.778 221.271 481.778 224.804 478.914 227.669 475.381 227.669 471.847 227.669 468.983 224.804 468.983 221.271 468.987 217.739 471.849 214.877 475.381 214.873Z"/></g></g></g><path d="M546 402.001C546 440.661 514.436 472.001 475.5 472.001 436.564 472.001 405 440.661 405 402.001 405 363.341 436.564 332.001 475.5 332.001 514.436 332.001 546 363.341 546 402.001Z" fill="#6BE8DB" fill-rule="evenodd"/><text font-family="Rubik Medium,Rubik Medium_MSFontService,sans-serif" font-weight="500" font-size="21" transform="translate(418.929 501)">Distributor</text><g clip-path="url(#clip22)"><g clip-path="url(#clip23)"><g clip-path="url(#clip24)"><path d="M457 370 455 370 455 438.022 495 438.022 495 370 457 370ZM493 436.022 457 436.022 457 372 493 372Z"/><path d="M498 360 452 360C450.897 360.003 450.003 360.897 450 362L450 446.025C450.004 447.128 450.897 448.021 452 448.025L498 448.025C499.103 448.021 499.996 447.128 500 446.025L500 362C499.996 360.897 499.103 360.004 498 360ZM498 446.025 452 446.025 452 362 498 362Z"/><path d="M471 367 480 367C480.552 367 481 366.552 481 366 481 365.448 480.552 365 480 365L471 365C470.448 365 470 365.448 470 366 470 366.552 470.448 367 471 367Z"/></g></g></g><path d="M0-0.333333 176.305-0.333333 176.5 66.8288 175.834 66.8308 175.639 0.000970456 175.972 0.333333 0 0.333333ZM179.93 64.927 177.14 73.4251 172.015 66.0944Z" fill="#7F7F7F" transform="matrix(-1 1.22465e-16 1.22465e-16 1 400.64 228.5)"/><text font-family="Rubik Light,Rubik Light_MSFontService,sans-serif" font-weight="300" font-size="16" transform="translate(227.676 218)">(5) <tspan font-size="16" x="23.6667" y="0">Provide </tspan>credentials</text><path d="M6.66697-0.321942 12.0003-0.312828 11.9992 0.353838 6.66583 0.344724ZM14.0003-0.309411 19.3336-0.300297 19.3325 0.366368 13.9992 0.357255ZM21.3336-0.29688 26.6669-0.287766 26.6658 0.378899 21.3325 0.369786ZM28.6669-0.284349 34.0003-0.275235 33.9991 0.39143 28.6658 0.382317ZM36.0003-0.271818 41.3336-0.262705 41.3324 0.403961 35.9991 0.394848ZM43.3336-0.259287 48.6669-0.250174 48.6658 0.416492 43.3324 0.407379ZM50.6669-0.246756 56.0002-0.237643 55.9991 0.429023 50.6658 0.41991ZM58.0002-0.234225 63.3336-0.225112 63.3324 0.441554 57.9991 0.43244ZM65.3336-0.221694 70.6669-0.212581 70.6657 0.454085 65.3324 0.444971ZM72.6669-0.209163 78.0002-0.20005 77.9991 0.466616 72.6657 0.457502ZM80.0002-0.196632 85.3335-0.187519 85.3324 0.479147 79.9991 0.470033ZM87.3335-0.184102 92.6668-0.174988 92.6657 0.491678 87.3324 0.482564ZM94.6668-0.171571 100-0.162457 99.999 0.504208 94.6657 0.495095ZM102-0.15904 107.334-0.149926 107.332 0.516739 101.999 0.507626ZM109.333-0.146509 114.667-0.137395 114.666 0.52927 109.332 0.520157ZM116.667-0.133978 122-0.124865 121.999 0.541801 116.666 0.532688ZM124-0.121447 129.333-0.112334 129.332 0.554332 123.999 0.545219ZM131.333-0.108916 136.667-0.0998027 136.666 0.566863 131.332 0.55775ZM138.667-0.0963852 144-0.0872718 143.999 0.579394 138.666 0.57028ZM146-0.0838543 151.333-0.0747409 151.332 0.591925 145.999 0.582811ZM153.333-0.0713234 158.667-0.06221 158.666 0.604456 153.332 0.595342ZM160.667-0.0587925 163.493-0.0539628 163.492 0.612703 160.666 0.607873ZM7.99315 4.01366 0 0 8.00682-3.98632Z" fill="#7F7F7F" transform="matrix(1 0 0 -1 240.5 401.779)"/><text font-family="Rubik Light,Rubik Light_MSFontService,sans-serif" font-weight="300" font-size="16" transform="translate(279.418 391)">Provide app</text><path d="M0 0 0.0522835 33.3441" stroke="#7F7F7F" stroke-width="0.666667" stroke-miterlimit="8" stroke-dasharray="5.33333 2" fill="none" fill-rule="evenodd" transform="matrix(-1 0 0 1 474.552 297.5)"/><text font-family="Rubik Light,Rubik Light_MSFontService,sans-serif" font-weight="300" font-size="16" transform="translate(483.241 319)">Partnership</text><path d="M0.631538 6.65981 0.691179 113.335 0.357846 113.002 550.866 113.002 550.533 113.335 550.533 51.866 551.2 51.866 551.2 113.668 0.0246992 113.668-0.0351281 6.66018ZM-3.63815 8.17091 0 0 4.35384 7.81307Z" fill="#7F7F7F" transform="matrix(-1 0 0 1 774.366 440.5)"/><text font-family="Rubik Light,Rubik Light_MSFontService,sans-serif" font-weight="300" font-size="16" transform="translate(238.968 574)">(6) Apply for a loan with VCs and get money + (7) Repay a loan</text><path d="M263.001 456.507C263.001 478.322 245.316 496.007 223.501 496.007 201.686 496.007 184.001 478.322 184.001 456.507 184.001 434.692 201.686 417.007 223.501 417.007 245.316 417.007 263.001 434.692 263.001 456.507Z" fill="#A9F4EA" fill-rule="evenodd"/><g clip-path="url(#clip25)"><g clip-path="url(#clip26)"><g clip-path="url(#clip27)"><path d="M214.625 438.292 213.583 438.292 213.583 473.72 234.417 473.72 234.417 438.292 214.625 438.292ZM233.375 472.678 214.625 472.678 214.625 439.333 233.375 439.333Z"/><path d="M235.979 433.083 212.021 433.083C211.446 433.085 210.981 433.55 210.979 434.125L210.979 477.888C210.981 478.462 211.446 478.928 212.021 478.93L235.979 478.93C236.553 478.927 237.019 478.462 237.021 477.888L237.021 434.125C237.019 433.551 236.554 433.085 235.979 433.083ZM235.979 477.888 212.021 477.888 212.021 434.125 235.979 434.125Z"/><path d="M221.917 436.729 226.604 436.729C226.892 436.729 227.125 436.496 227.125 436.208 227.125 435.921 226.892 435.688 226.604 435.688L221.917 435.688C221.629 435.688 221.396 435.921 221.396 436.208 221.396 436.496 221.629 436.729 221.917 436.729Z"/></g></g></g><text font-family="Rubik Medium,Rubik Medium_MSFontService,sans-serif" font-weight="500" font-size="16" transform="translate(182.941 516)">Borrowing <tspan font-size="16" x="25.8333" y="19">app</tspan><tspan font-family="Rubik Light,Rubik Light_MSFontService,sans-serif" font-weight="300" font-size="16" x="698.224" y="-143">(3) Approve a credit line</tspan><tspan font-family="Rubik Light,Rubik Light_MSFontService,sans-serif" font-weight="300" font-size="16" x="710.977" y="-124">/ publish a loan offer</tspan></text></g></svg>