<svg width="1922" height="1288" xmlns="http://www.w3.org/2000/svg" xmlns:xlink="http://www.w3.org/1999/xlink" overflow="hidden"><defs><clipPath id="clip0"><rect x="830" y="419" width="1922" height="1288"/></clipPath><radialGradient cx="0" cy="0" r="3.17239e+06" fy="-2.4165e-11" gradientUnits="userSpaceOnUse" spreadMethod="pad" id="fill1" gradientTransform="matrix(-6.62949e-20 -0.000360892 0.000360892 -6.62949e-20 915 1591)"><stop offset="0" stop-color="#14D2BA"/><stop offset="0.5" stop-color="#6BE8DD"/><stop offset="1" stop-color="#A9F5EB"/></radialGradient><radialGradient cx="0.125" cy="0.125" r="3.17319e+06" fx="0" fy="0" gradientUnits="userSpaceOnUse" spreadMethod="pad" id="fill2" gradientTransform="matrix(2.20983e-20 0.000360892 -0.000360892 2.20983e-20 2752 501)"><stop offset="0" stop-color="#A9F5EB"/><stop offset="0.5" stop-color="#6BE8DD"/><stop offset="1" stop-color="#16D1BA"/></radialGradient></defs><g clip-path="url(#clip0)" transform="translate(-830 -419)"><path d="M1295 550.334C1295 519.774 1319.77 495 1350.33 495L2316.67 495C2347.23 495 2372 519.774 2372 550.334L2372 771.666C2372 802.226 2347.23 827 2316.67 827L1350.33 827C1319.77 827 1295 802.226 1295 771.666Z" fill="#A9F5EB" fill-rule="evenodd"/><text font-family="Rubik Medium,Rubik Medium_MSFontService,sans-serif" font-weight="500" font-size="83" transform="matrix(1 0 0 1 1547.53 689)">DISTRIBUTION</text><path d="M1295 932.334C1295 901.774 1319.77 877 1350.33 877L2316.67 877C2347.23 877 2372 901.774 2372 932.334L2372 1153.67C2372 1184.23 2347.23 1209 2316.67 1209L1350.33 1209C1319.77 1209 1295 1184.23 1295 1153.67Z" fill="#6BE8DC" fill-rule="evenodd"/><text font-family="Rubik Medium,Rubik Medium_MSFontService,sans-serif" font-weight="500" font-size="83" transform="matrix(1 0 0 1 1519.37 1022)">RISK <tspan font-size="83" x="-189.063" y="99">MANAGEMENT</tspan></text><path d="M1295 1314.33C1295 1283.77 1319.77 1259 1350.33 1259L2316.67 1259C2347.23 1259 2372 1283.77 2372 1314.33L2372 1535.67C2372 1566.23 2347.23 1591 2316.67 1591L1350.33 1591C1319.77 1591 1295 1566.23 1295 1535.67Z" fill="#16D1BA" fill-rule="evenodd"/><text font-family="Rubik Medium,Rubik Medium_MSFontService,sans-serif" font-weight="500" font-size="83" transform="matrix(1 0 0 1 1632.61 1453)">LIQUIDITY</text><path d="M970.168 1591C939.7 1591 915 1566.3 915 1535.83L915 550.168C915 519.699 939.7 495 970.168 495L1190.83 495C1221.3 495 1246 519.699 1246 550.168L1246 1535.83C1246 1566.3 1221.3 1591 1190.83 1591Z" fill="url(#fill1)" fill-rule="evenodd"/><text font-family="Rubik Medium,Rubik Medium_MSFontService,sans-serif" font-weight="500" font-size="83" transform="matrix(-1.83697e-16 -1 1 -1.83697e-16 1109 1266)">PAYMENTS</text><path d="M2696.67 501C2727.23 501 2752 525.774 2752 556.334L2752 1541.67C2752 1572.23 2727.23 1597 2696.67 1597L2475.33 1597C2444.77 1597 2420 1572.23 2420 1541.67L2420 556.334C2420 525.774 2444.77 501 2475.33 501Z" fill="url(#fill2)" fill-rule="evenodd"/><text font-family="Rubik Medium,Rubik Medium_MSFontService,sans-serif" font-weight="500" font-size="83" transform="matrix(6.12323e-17 1 -1 6.12323e-17 2557.15 769)">GOVERNANCE</text><path d="M1160.5 468.655 1207.66 421.5 1552.34 421.5 1599.5 468.655 1599.5 535.345 1552.34 582.5 1207.66 582.5 1160.5 535.345Z" stroke="#2F528F" stroke-width="4.58333" stroke-miterlimit="8" fill="#157878" fill-rule="evenodd"/><text fill="#FFFFFF" font-family="Rubik Medium,Rubik Medium_MSFontService,sans-serif" font-weight="500" font-size="64" transform="matrix(1 0 0 1 1217.41 524)">Borrowers</text><path d="M1160.5 1557.66 1207.66 1510.5 1552.34 1510.5 1599.5 1557.66 1599.5 1624.34 1552.34 1671.5 1207.66 1671.5 1160.5 1624.34Z" stroke="#2F528F" stroke-width="4.58333" stroke-miterlimit="8" fill="#009D8B" fill-rule="evenodd"/><text fill="#FFFFFF" font-family="Rubik Medium,Rubik Medium_MSFontService,sans-serif" font-weight="500" font-size="64" transform="matrix(1 0 0 1 1243.78 1575)">Liquidity<tspan font-size="64" x="-13.475" y="77">Providers</tspan></text><path d="M1160.5 812.655 1207.66 765.5 1552.34 765.5 1599.5 812.655 1599.5 879.345 1552.34 926.5 1207.66 926.5 1160.5 879.345Z" stroke="#2F528F" stroke-width="4.58333" stroke-miterlimit="8" fill="#009D8B" fill-rule="evenodd"/><text fill="#FFFFFF" font-family="Rubik Medium,Rubik Medium_MSFontService,sans-serif" font-weight="500" font-size="64" transform="matrix(1 0 0 1 1192.49 868)">Distributors</text><path d="M1160.5 1205.66 1207.66 1158.5 1552.34 1158.5 1599.5 1205.66 1599.5 1272.34 1552.34 1319.5 1207.66 1319.5 1160.5 1272.34Z" stroke="#2F528F" stroke-width="4.58333" stroke-miterlimit="8" fill="#009D8B" fill-rule="evenodd"/><text fill="#FFFFFF" font-family="Rubik Medium,Rubik Medium_MSFontService,sans-serif" font-weight="500" font-size="64" transform="matrix(1 0 0 1 1253.5 1261)">Lenders</text><path d="M1893.5 888.655 1940.65 841.5 2285.34 841.5 2332.5 888.655 2332.5 955.345 2285.34 1002.5 1940.65 1002.5 1893.5 955.345Z" stroke="#2F528F" stroke-width="4.58333" stroke-miterlimit="8" fill="#009D8B" fill-rule="evenodd"/><text fill="#FFFFFF" font-family="Rubik Medium,Rubik Medium_MSFontService,sans-serif" font-weight="500" font-size="64" transform="matrix(1 0 0 1 1950.75 906)">Credential<tspan font-size="64" x="48.6979" y="77">Issuers</tspan></text><path d="M1893.5 1126.66 1940.65 1079.5 2285.34 1079.5 2332.5 1126.66 2332.5 1193.34 2285.34 1240.5 1940.65 1240.5 1893.5 1193.34Z" stroke="#2F528F" stroke-width="4.58333" stroke-miterlimit="8" fill="#009D8B" fill-rule="evenodd"/><text fill="#FFFFFF" font-family="Rubik Medium,Rubik Medium_MSFontService,sans-serif" font-weight="500" font-size="64" transform="matrix(1 0 0 1 2047.58 1144)">Risk <tspan font-size="64" x="-94.2562" y="77">Assessors</tspan></text><path d="M893.948 1269.5 846.5 1222.05 846.5 877.948 893.948 830.5 961.052 830.5 1008.5 877.948 1008.5 1222.05 961.052 1269.5Z" stroke="#2F528F" stroke-width="4.58333" stroke-miterlimit="8" fill="#009D8B" fill-rule="evenodd"/><text fill="#FFFFFF" font-family="Rubik Medium,Rubik Medium_MSFontService,sans-serif" font-weight="500" font-size="64" transform="matrix(-1.83697e-16 -1 1 -1.83697e-16 910.97 1188)">Payment<tspan font-size="64" x="-36" y="77">Processors</tspan></text><path d="M2471.34 823.5 2518.5 870.655 2518.5 1215.34 2471.34 1262.5 2404.66 1262.5 2357.5 1215.34 2357.5 870.655 2404.66 823.5Z" stroke="#2F528F" stroke-width="4.58333" stroke-miterlimit="8" fill="#009D8B" fill-rule="evenodd"/><text fill="#FFFFFF" font-family="Rubik Medium,Rubik Medium_MSFontService,sans-serif" font-weight="500" font-size="64" transform="matrix(6.12323e-17 1 -1 6.12323e-17 2453.58 911)">Protocol<tspan font-size="64" x="-28" y="77">Gov Board</tspan></text></g></svg>