<svg width="1280" height="720" xmlns="http://www.w3.org/2000/svg" xmlns:xlink="http://www.w3.org/1999/xlink" overflow="hidden"><defs><clipPath id="clip0"><rect x="0" y="0" width="1280" height="720"/></clipPath><radialGradient cx="0" cy="0" r="3.17584e+06" fy="-2.41774e-11" gradientUnits="userSpaceOnUse" spreadMethod="pad" id="fill1" gradientTransform="matrix(-1.92858e-20 -0.000104987 0.000104987 -1.92858e-20 266 463)"><stop offset="0" stop-color="#14D2BA"/><stop offset="0.5" stop-color="#6BE8DD"/><stop offset="1" stop-color="#A9F5EB"/></radialGradient><radialGradient cx="0" cy="0" r="3.17308e+06" fy="-2.41775e-11" gradientUnits="userSpaceOnUse" spreadMethod="pad" id="fill2" gradientTransform="matrix(6.42859e-21 0.000104987 -0.000104987 6.42859e-21 800 146)"><stop offset="0" stop-color="#A9F5EB"/><stop offset="0.5" stop-color="#6BE8DD"/><stop offset="1" stop-color="#16D1BA"/></radialGradient></defs><g clip-path="url(#clip0)"><rect x="0" y="0" width="1280" height="720" fill="#FFFFFF"/><path d="M377 160.167C377 151.238 384.238 144 393.167 144L673.833 144C682.762 144 690 151.238 690 160.167L690 224.833C690 233.762 682.762 241 673.833 241L393.167 241C384.238 241 377 233.762 377 224.833Z" fill="#A9F5EB" fill-rule="evenodd"/><text font-family="Rubik Medium,Rubik Medium_MSFontService,sans-serif" font-weight="500" font-size="24" transform="translate(450.191 201)">DISTRIBUTION</text><path d="M377 271.167C377 262.238 384.238 255 393.167 255L673.833 255C682.762 255 690 262.238 690 271.167L690 335.833C690 344.762 682.762 352 673.833 352L393.167 352C384.238 352 377 344.762 377 335.833Z" fill="#6BE8DC" fill-rule="evenodd"/><text font-family="Rubik Medium,Rubik Medium_MSFontService,sans-serif" font-weight="500" font-size="24" transform="translate(506.361 298)">RISK <tspan font-size="24" x="-56.92" y="29">MANAGEMENT</tspan></text><path d="M377 382.167C377 373.238 384.238 366 393.167 366L673.833 366C682.762 366 690 373.238 690 382.167L690 446.833C690 455.762 682.762 463 673.833 463L393.167 463C384.238 463 377 455.762 377 446.833Z" fill="#16D1BA" fill-rule="evenodd"/><text font-family="Rubik Medium,Rubik Medium_MSFontService,sans-serif" font-weight="500" font-size="24" transform="translate(474.941 423)">LIQUIDITY</text><path d="M282.167 463C273.238 463 266 455.762 266 446.833L266 160.167C266 151.238 273.238 144 282.167 144L346.833 144C355.762 144 363 151.238 363 160.167L363 446.833C363 455.762 355.762 463 346.833 463Z" fill="url(#fill1)" fill-rule="evenodd"/><text font-family="Rubik Medium,Rubik Medium_MSFontService,sans-serif" font-weight="500" font-size="24" transform="matrix(-1.83697e-16 -1 1 -1.83697e-16 322.925 368)">PAYMENTS</text><path d="M784 146C792.836 146 800 153.163 800 162L800 449C800 457.836 792.836 465 784 465L720 465C711.164 465 704 457.836 704 449L704 162C704 153.163 711.164 146 720 146Z" fill="url(#fill2)" fill-rule="evenodd"/><text font-family="Rubik Medium,Rubik Medium_MSFontService,sans-serif" font-weight="500" font-size="24" transform="matrix(6.12323e-17 1 -1 6.12323e-17 743.59 224)">GOVERNANCE</text></g></svg>