<svg width="1837" height="1102" xmlns="http://www.w3.org/2000/svg" xmlns:xlink="http://www.w3.org/1999/xlink" overflow="hidden"><defs><clipPath id="clip0"><rect x="915" y="495" width="1837" height="1102"/></clipPath><radialGradient cx="0" cy="0" r="3.17239e+06" fy="-2.4165e-11" gradientUnits="userSpaceOnUse" spreadMethod="pad" id="fill1" gradientTransform="matrix(-6.62949e-20 -0.000360892 0.000360892 -6.62949e-20 915 1591)"><stop offset="0" stop-color="#14D2BA"/><stop offset="0.5" stop-color="#6BE8DD"/><stop offset="1" stop-color="#A9F5EB"/></radialGradient><radialGradient cx="0.125" cy="0.125" r="3.17319e+06" fx="0" fy="0" gradientUnits="userSpaceOnUse" spreadMethod="pad" id="fill2" gradientTransform="matrix(2.20983e-20 0.000360892 -0.000360892 2.20983e-20 2752 501)"><stop offset="0" stop-color="#A9F5EB"/><stop offset="0.5" stop-color="#6BE8DD"/><stop offset="1" stop-color="#16D1BA"/></radialGradient></defs><g clip-path="url(#clip0)" transform="translate(-915 -495)"><path d="M1295 550.334C1295 519.774 1319.77 495 1350.33 495L2316.67 495C2347.23 495 2372 519.774 2372 550.334L2372 771.666C2372 802.226 2347.23 827 2316.67 827L1350.33 827C1319.77 827 1295 802.226 1295 771.666Z" fill="#A9F5EB" fill-rule="evenodd"/><text font-family="Rubik Medium,Rubik Medium_MSFontService,sans-serif" font-weight="500" font-size="83" transform="matrix(1 0 0 1 1547.53 689)">DISTRIBUTION</text><path d="M1295 932.334C1295 901.774 1319.77 877 1350.33 877L2316.67 877C2347.23 877 2372 901.774 2372 932.334L2372 1153.67C2372 1184.23 2347.23 1209 2316.67 1209L1350.33 1209C1319.77 1209 1295 1184.23 1295 1153.67Z" fill="#6BE8DC" fill-rule="evenodd"/><text font-family="Rubik Medium,Rubik Medium_MSFontService,sans-serif" font-weight="500" font-size="83" transform="matrix(1 0 0 1 1740.62 1022)">RISK <tspan font-size="83" x="-195.663" y="99">MANAGEMENT</tspan></text><path d="M1295 1314.33C1295 1283.77 1319.77 1259 1350.33 1259L2316.67 1259C2347.23 1259 2372 1283.77 2372 1314.33L2372 1535.67C2372 1566.23 2347.23 1591 2316.67 1591L1350.33 1591C1319.77 1591 1295 1566.23 1295 1535.67Z" fill="#16D1BA" fill-rule="evenodd"/><text font-family="Rubik Medium,Rubik Medium_MSFontService,sans-serif" font-weight="500" font-size="83" transform="matrix(1 0 0 1 1632.61 1453)">LIQUIDITY</text><path d="M970.168 1591C939.7 1591 915 1566.3 915 1535.83L915 550.168C915 519.699 939.7 495 970.168 495L1190.83 495C1221.3 495 1246 519.699 1246 550.168L1246 1535.83C1246 1566.3 1221.3 1591 1190.83 1591Z" fill="url(#fill1)" fill-rule="evenodd"/><text font-family="Rubik Medium,Rubik Medium_MSFontService,sans-serif" font-weight="500" font-size="83" transform="matrix(-1.83697e-16 -1 1 -1.83697e-16 1109 1266)">PAYMENTS</text><path d="M2696.67 501C2727.23 501 2752 525.774 2752 556.334L2752 1541.67C2752 1572.23 2727.23 1597 2696.67 1597L2475.33 1597C2444.77 1597 2420 1572.23 2420 1541.67L2420 556.334C2420 525.774 2444.77 501 2475.33 501Z" fill="url(#fill2)" fill-rule="evenodd"/><text font-family="Rubik Medium,Rubik Medium_MSFontService,sans-serif" font-weight="500" font-size="83" transform="matrix(6.12323e-17 1 -1 6.12323e-17 2557.15 769)">GOVERNANCE</text></g></svg>